<?xml version="1.0" standalone="no"?>
<!DOCTYPE svg PUBLIC "-//W3C//DTD SVG 20010904//EN"
 "http://www.w3.org/TR/2001/REC-SVG-20010904/DTD/svg10.dtd">
<svg version="1.0" xmlns="http://www.w3.org/2000/svg"
 width="844.000000pt" height="82.000000pt" viewBox="0 0 844.000000 82.000000"
 preserveAspectRatio="xMidYMid meet">

<g transform="translate(0.000000,82.000000) scale(0.100000,-0.100000)"
fill="#FFFFFF" stroke="none">
<path d="M73 805 c-62 -27 -73 -61 -73 -233 0 -166 10 -210 52 -234 16 -9 86
-14 243 -18 l220 -5 0 -60 0 -60 -245 -5 -245 -5 -3 -88 -3 -87 329 0 c317 0
330 1 355 21 41 31 49 77 45 246 l-3 153 -33 32 -32 33 -223 5 -222 5 -3 63
-3 62 246 0 245 0 0 95 0 95 -307 0 c-242 -1 -315 -4 -340 -15z"/>
<path d="M1061 803 c-5 -10 -61 -186 -125 -391 -65 -205 -119 -379 -123 -387
-4 -13 14 -15 114 -15 l119 0 20 62 20 63 160 3 159 2 19 -65 18 -65 120 0
c92 0 119 3 115 13 -2 6 -57 181 -122 387 -64 206 -121 383 -126 393 -9 15
-28 17 -184 17 -156 0 -175 -2 -184 -17z m234 -322 c25 -78 45 -147 45 -152 0
-5 -43 -9 -95 -9 -52 0 -95 3 -95 8 0 4 20 72 45 152 25 80 45 147 45 149 0
18 17 -26 55 -148z"/>
<path d="M1747 813 c-4 -3 -7 -186 -7 -405 l0 -398 350 0 350 0 0 90 0 90
-235 0 -235 0 0 315 0 315 -108 0 c-60 0 -112 -3 -115 -7z"/>
<path d="M2560 803 c-67 -34 -70 -51 -70 -391 0 -328 3 -352 53 -385 23 -15
60 -17 324 -17 327 0 327 0 358 60 12 24 15 84 15 342 0 337 -1 343 -53 382
-27 20 -42 21 -310 24 -253 2 -286 1 -317 -15z m450 -393 l0 -221 -142 3 -143
3 -3 218 -2 217 145 0 145 0 0 -220z"/>
<path d="M3347 814 c-4 -4 -7 -187 -7 -406 l0 -398 115 0 115 0 2 214 3 215
72 -157 72 -157 58 0 57 0 76 163 75 164 3 -221 2 -221 110 0 110 0 0 405 0
406 -111 -3 -112 -3 -101 -212 c-55 -117 -104 -213 -107 -213 -3 0 -52 96
-110 213 l-104 212 -106 3 c-58 1 -108 -1 -112 -4z"/>
<path d="M4317 813 c-4 -3 -7 -186 -7 -405 l0 -398 115 0 115 0 0 155 0 155
145 0 145 0 0 -155 0 -155 115 0 115 0 0 405 0 406 -112 -3 -113 -3 -3 -157
-3 -158 -144 0 -145 0 0 160 0 160 -108 0 c-60 0 -112 -3 -115 -7z"/>
<path d="M5377 813 c-8 -13 -247 -781 -247 -793 0 -6 42 -10 114 -10 l114 0
22 65 22 65 158 0 158 0 19 -62 19 -63 117 -3 c64 -1 117 1 117 5 0 7 -79 262
-196 631 l-55 172 -179 0 c-98 0 -181 -3 -183 -7z m234 -341 l47 -147 -95 -3
c-53 -1 -97 -1 -99 1 -2 2 18 71 43 155 26 83 49 149 52 146 3 -3 27 -71 52
-152z"/>
<path d="M5953 808 c2 -7 75 -138 161 -292 l156 -279 0 -113 0 -114 115 0 115
0 0 117 0 117 155 276 c85 153 155 282 155 289 0 8 -36 11 -120 11 l-120 0
-90 -180 c-50 -99 -92 -180 -95 -180 -3 0 -45 81 -95 180 l-90 180 -126 0
c-97 0 -125 -3 -121 -12z"/>
<path d="M6953 805 c-18 -8 -42 -29 -53 -47 -19 -31 -20 -50 -20 -341 0 -330
4 -357 51 -391 20 -14 62 -16 322 -16 260 0 301 2 323 16 52 35 54 48 54 386
0 437 26 408 -377 408 -207 -1 -275 -4 -300 -15z m447 -395 l0 -220 -145 0
-145 0 0 220 0 220 145 0 145 0 0 -220z"/>
<path d="M7690 725 l0 -95 130 0 130 0 0 -310 0 -310 115 0 115 0 0 310 0 309
128 3 127 3 0 90 0 90 -372 3 -373 2 0 -95z"/>
</g>
</svg>
