<?xml version="1.0" standalone="no"?>
<!DOCTYPE svg PUBLIC "-//W3C//DTD SVG 20010904//EN"
 "http://www.w3.org/TR/2001/REC-SVG-20010904/DTD/svg10.dtd">
<svg version="1.0" xmlns="http://www.w3.org/2000/svg"
 width="285.000000pt" height="281.000000pt" viewBox="0 0 285.000000 281.000000"
 preserveAspectRatio="xMidYMid meet">

<g transform="translate(0.000000,281.000000) scale(0.100000,-0.100000)"
fill="#000" stroke="none">
<path d="M705 2100 l-700 -700 413 -412 412 -413 252 252 253 253 -135 135
-135 135 -117 -117 -118 -118 -145 145 -145 145 567 567 568 568 -130 130
c-71 71 -132 130 -135 130 -3 0 -320 -315 -705 -700z"/>
<path d="M1662 1947 c-166 -166 -302 -307 -302 -312 0 -6 59 -69 130 -140
l130 -130 173 173 172 172 150 -150 150 -150 -568 -567 -568 -567 133 -133
133 -133 704 704 705 705 -405 406 c-222 223 -411 410 -420 415 -12 7 -81 -56
-317 -293z"/>
</g>
</svg>
